# xmcd
#
# Track frame offsets: 
#        150
#        13178
#        29374
#        48261
#        59860
#        73851
#        91742
#        104066
#        119238
#        132710
#        150183
#        160703
#        176817
#        199485
#        221492
#        232747
#        244951
#        257575
#        276835
#        289657
#
# Disc length: 4023 seconds
#
# Revision: 5
# Processed by: cddbd v1.5.1PL0 Copyright (c) Steve Scherf et al.
# Submitted via: ExactAudioCopy v0.90b4
#
DISCID=330fb514
DTITLE=Nina Simone - Blue For You - The Very Best Of Nina Simone
DYEAR=1997
DGENRE=Vocal
TTITLE0=Feeling Good
TTITLE1=My Baby Just Cares For Me
TTITLE2=I Loves You Porgy
TTITLE3=I Put A Spell On You
TTITLE4=I Wish I Knew How It Would Feel To Be Free
TTITLE5=Blues For Mama
TTITLE6=Don't Let Me Be Misunderstood
TTITLE7=Love Me Or Leave Me
TTITLE8=Nobody's Fault But Mine
TTITLE9=I Shall Be Released
TTITLE10=Ain't Got No - I Got Life
TTITLE11=Here Comes The Sun
TTITLE12=Mr Bojangles
TTITLE13=Just Like A Woman
TTITLE14=The Backlash Blues
TTITLE15=In The Morning
TTITLE16=Go To Hell
TTITLE17=Suzanne
TTITLE18=Since I Fell For You
TTITLE19=To Love Somebody
EXTD=
EXTT0=
EXTT1=
EXTT2=
EXTT3=
EXTT4=
EXTT5=
EXTT6=
EXTT7=
EXTT8=
EXTT9=
EXTT10=
EXTT11=
EXTT12=
EXTT13=
EXTT14=
EXTT15=
EXTT16=
EXTT17=
EXTT18=
EXTT19=
PLAYORDER=
